<?xml version="1.0" standalone="no"?>
<!DOCTYPE svg PUBLIC "-//W3C//DTD SVG 20010904//EN"
 "http://www.w3.org/TR/2001/REC-SVG-20010904/DTD/svg10.dtd">
<svg version="1.0" xmlns="http://www.w3.org/2000/svg"
 width="10378.000000pt" height="2759.000000pt" viewBox="0 0 10378.000000 2759.000000"
 preserveAspectRatio="xMidYMid meet">

<g transform="translate(0.000000,2759.000000) scale(0.100000,-0.100000)"
fill="#000000" stroke="none">
<path d="M18430 21830 l0 -1150 -1150 0 -1150 0 0 -1150 0 -1150 1150 0 1150
0 0 -1155 0 -1155 1150 0 1150 0 0 1155 0 1155 1150 0 1150 0 0 1150 0 1150
-1150 0 -1150 0 0 1150 0 1150 -1150 0 -1150 0 0 -1150z"/>
<path d="M93800 17810 l0 -770 -770 0 -770 0 0 -770 0 -770 770 0 770 0 0
-775 0 -775 775 0 775 0 0 775 0 775 770 0 770 0 0 770 0 770 -770 0 -770 0 0
770 0 770 -775 0 -775 0 0 -770z"/>
</g>
</svg>
