<?xml version="1.0" encoding="UTF-8"?>
<!DOCTYPE svg PUBLIC "-//W3C//DTD SVG 1.1//EN" "http://www.w3.org/Graphics/SVG/1.1/DTD/svg11.dtd">
<svg xmlns="http://www.w3.org/2000/svg" version="1.1" width="600px" height="327px" style="shape-rendering:geometricPrecision; text-rendering:geometricPrecision; image-rendering:optimizeQuality; fill-rule:evenodd; clip-rule:evenodd" xmlns:xlink="http://www.w3.org/1999/xlink">
<g><path style="opacity:0.978" fill="#221f1f" d="M 91.5,-0.5 C 220.833,-0.5 350.167,-0.5 479.5,-0.5C 421.366,16.2609 363.033,32.7609 304.5,49C 291.833,52.3333 279.167,52.3333 266.5,49C 207.967,32.7609 149.634,16.2609 91.5,-0.5 Z"/></g>
<g><path style="opacity:0.979" fill="#221f1f" d="M 91.5,20.5 C 141.946,52.2288 192.279,84.2288 242.5,116.5C 243.521,117.002 243.688,117.668 243,118.5C 192.789,141.021 142.623,163.688 92.5,186.5C 91.5,131.171 91.1667,75.8373 91.5,20.5 Z"/></g>
<g><path style="opacity:0.977" fill="#221f1f" d="M 482.5,20.5 C 483.833,47.8252 484.5,75.4919 484.5,103.5C 484.167,131.167 483.833,158.833 483.5,186.5C 431.593,163.962 379.76,141.296 328,118.5C 327.312,117.668 327.479,117.002 328.5,116.5C 380.139,84.8348 431.472,52.8348 482.5,20.5 Z"/></g>
<g><path style="opacity:0.885" fill="#221f1f" d="M 124.5,23.5 C 125.601,22.4017 126.934,22.235 128.5,23C 155,30.707 181.333,38.8737 207.5,47.5C 203.24,49.5472 199.407,52.2139 196,55.5C 194.39,59.0607 192.557,62.3941 190.5,65.5C 168.472,51.4893 146.472,37.4893 124.5,23.5 Z"/></g>
<g><path style="opacity:0.883" fill="#221f1f" d="M 442.5,22.5 C 443.873,22.3433 445.207,22.51 446.5,23C 424.67,37.416 402.67,51.5826 380.5,65.5C 378.362,61.9013 376.195,58.2346 374,54.5C 370.902,51.5696 367.402,49.2363 363.5,47.5C 389.878,38.9948 416.211,30.6615 442.5,22.5 Z"/></g>
<g><path style="opacity:0.957" fill="#221f1f" d="M 235.5,55.5 C 245.194,58.1742 254.86,61.0075 264.5,64C 278.5,67.3333 292.5,67.3333 306.5,64C 316.196,60.6612 325.863,58.1612 335.5,56.5C 328.632,69.7384 331.632,80.2384 344.5,88C 333.338,95.7484 322.005,103.248 310.5,110.5C 293.833,103.833 277.167,103.833 260.5,110.5C 248.995,103.248 237.662,95.7484 226.5,88C 239.585,79.9157 242.585,69.0824 235.5,55.5 Z"/></g>
<g><path style="opacity:0.964" fill="#221f1f" d="M 277.5,120.5 C 285.656,120.009 293.656,120.842 301.5,123C 359.648,148.576 417.648,174.409 475.5,200.5C 473.922,201.298 472.256,201.798 470.5,202C 347.167,202.667 223.833,202.667 100.5,202C 98.7444,201.798 97.0777,201.298 95.5,200.5C 151.136,175.684 206.803,150.85 262.5,126C 267.434,123.637 272.434,121.804 277.5,120.5 Z"/></g>
<g><path style="opacity:0.876" fill="#221f1f" d="M 219.5,225.5 C 229.871,225.703 233.371,230.703 230,240.5C 226.319,243.36 222.152,244.193 217.5,243C 211.65,236.305 212.317,230.471 219.5,225.5 Z"/></g>
<g><path style="opacity:0.809" fill="#221f1f" d="M 444.5,225.5 C 452.354,226.047 454.687,229.88 451.5,237C 443.95,239.984 440.45,237.484 441,229.5C 441.69,227.65 442.856,226.316 444.5,225.5 Z"/></g>
<g><path style="opacity:0.803" fill="#221f1f" d="M 533.5,225.5 C 541.36,226.061 543.694,229.894 540.5,237C 532.95,239.984 529.45,237.484 530,229.5C 530.69,227.65 531.856,226.316 533.5,225.5 Z"/></g>
<g><path style="opacity:0.946" fill="#221f1f" d="M -0.5,228.5 C 4.83333,228.5 10.1667,228.5 15.5,228.5C 15.5,254.167 15.5,279.833 15.5,305.5C 10.1667,305.5 4.83333,305.5 -0.5,305.5C -0.5,279.833 -0.5,254.167 -0.5,228.5 Z"/></g>
<g><path style="opacity:0.895" fill="#221f1f" d="M 367.5,228.5 C 370.898,228.18 374.232,228.513 377.5,229.5C 389.667,249.167 401.833,268.833 414,288.5C 414.5,268.503 414.667,248.503 414.5,228.5C 417.5,228.5 420.5,228.5 423.5,228.5C 423.5,254.167 423.5,279.833 423.5,305.5C 420.482,305.665 417.482,305.498 414.5,305C 401.209,285.7 388.709,265.867 377,245.5C 376.5,265.497 376.333,285.497 376.5,305.5C 373.5,305.5 370.5,305.5 367.5,305.5C 367.5,279.833 367.5,254.167 367.5,228.5 Z"/></g>
<g><path style="opacity:0.94" fill="#221f1f" d="M 56.5,246.5 C 68.0701,244.699 76.2368,249.032 81,259.5C 82.4354,274.775 82.9354,290.109 82.5,305.5C 77.1667,305.5 71.8333,305.5 66.5,305.5C 66.6666,292.829 66.4999,280.162 66,267.5C 62.9844,261.628 58.4844,260.128 52.5,263C 50.5125,264.319 49.3459,266.152 49,268.5C 48.5001,280.829 48.3335,293.162 48.5,305.5C 43.1667,305.5 37.8333,305.5 32.5,305.5C 32.5,286.167 32.5,266.833 32.5,247.5C 37.8333,247.5 43.1667,247.5 48.5,247.5C 48.3505,248.552 48.5172,249.552 49,250.5C 51.2552,248.501 53.7552,247.168 56.5,246.5 Z"/></g>
<g><path style="opacity:0.924" fill="#221f1f" d="M 170.5,246.5 C 191.173,246.001 202.173,256.167 203.5,277C 201.416,301.02 188.749,310.354 165.5,305C 152.896,296.557 148.063,284.723 151,269.5C 153.069,257.941 159.569,250.275 170.5,246.5 Z M 172.5,262.5 C 179.624,260.972 184.124,263.639 186,270.5C 187.037,276.394 186.371,282.061 184,287.5C 174.909,294.131 169.242,291.798 167,280.5C 165.89,273.507 167.724,267.507 172.5,262.5 Z"/></g>
<g><path style="opacity:0.914" fill="#221f1f" d="M 263.5,246.5 C 276.084,244.63 285.751,248.963 292.5,259.5C 289.182,263.318 285.682,266.985 282,270.5C 278.024,263.764 272.191,261.264 264.5,263C 255.564,271.639 255.23,280.639 263.5,290C 266.702,291.483 270.036,291.817 273.5,291C 276.919,289.414 279.919,287.248 282.5,284.5C 286.655,286.822 289.988,289.988 292.5,294C 284.723,305.484 274.056,309.484 260.5,306C 249.978,302.139 243.811,294.639 242,283.5C 239.459,265.22 246.625,252.887 263.5,246.5 Z"/></g>
<g><path style="opacity:0.912" fill="#221f1f" d="M 319.5,246.5 C 334.632,245.131 344.132,251.797 348,266.5C 349.435,271.7 349.602,276.866 348.5,282C 337.505,282.5 326.505,282.667 315.5,282.5C 317.39,290.452 322.39,293.286 330.5,291C 332.587,290.208 334.421,289.041 336,287.5C 339.833,290.667 343.667,293.833 347.5,297C 336.795,308.137 324.462,310.137 310.5,303C 302.296,296.433 298.296,287.766 298.5,277C 298.522,261.727 305.522,251.56 319.5,246.5 Z M 321.5,260.5 C 327.546,260.184 331.546,262.851 333.5,268.5C 327.537,269.496 321.537,269.829 315.5,269.5C 315.932,265.41 317.932,262.41 321.5,260.5 Z"/></g>
<g><path style="opacity:0.877" fill="#221f1f" d="M 488.5,246.5 C 505.395,244.896 513.895,252.562 514,269.5C 514.5,281.495 514.667,293.495 514.5,305.5C 511.167,305.5 507.833,305.5 504.5,305.5C 504.667,291.829 504.5,278.163 504,264.5C 500.849,255.331 494.683,252.498 485.5,256C 482.131,258.365 479.964,261.532 479,265.5C 478.5,278.829 478.333,292.163 478.5,305.5C 475.5,305.5 472.5,305.5 469.5,305.5C 469.5,286.167 469.5,266.833 469.5,247.5C 472.5,247.5 475.5,247.5 478.5,247.5C 478.34,249.199 478.506,250.866 479,252.5C 481.843,249.837 485.009,247.837 488.5,246.5 Z"/></g>
<g><path style="opacity:0.876" fill="#221f1f" d="M 599.5,257.5 C 599.5,273.5 599.5,289.5 599.5,305.5C 596.5,305.5 593.5,305.5 590.5,305.5C 590.66,303.801 590.494,302.134 590,300.5C 579.26,309.743 568.594,309.743 558,300.5C 550.358,281.492 556.691,271.158 577,269.5C 581.596,269.609 586.096,270.275 590.5,271.5C 591.165,266.266 590.165,261.432 587.5,257C 579.486,253.549 571.653,254.049 564,258.5C 562.013,256.536 560.513,254.203 559.5,251.5C 570.119,246.027 581.119,245.194 592.5,249C 595.454,251.441 597.787,254.275 599.5,257.5 Z M 570.5,277.5 C 576.99,277.02 583.323,277.687 589.5,279.5C 593.2,290.274 589.533,296.774 578.5,299C 566.359,299.854 561.859,294.354 565,282.5C 566.73,280.598 568.563,278.931 570.5,277.5 Z"/></g>
<g><path style="opacity:0.92" fill="#221f1f" d="M 88.5,247.5 C 94.5,247.5 100.5,247.5 106.5,247.5C 109.64,259.752 113.473,271.752 118,283.5C 121.61,271.505 125.11,259.505 128.5,247.5C 134.537,247.171 140.537,247.504 146.5,248.5C 139.765,267.205 132.932,285.872 126,304.5C 120.259,305.475 114.425,305.808 108.5,305.5C 102.034,286.104 95.3678,266.77 88.5,247.5 Z"/></g>
<g><path style="opacity:0.935" fill="#221f1f" d="M 214.5,247.5 C 219.833,247.5 225.167,247.5 230.5,247.5C 230.5,266.833 230.5,286.167 230.5,305.5C 225.167,305.5 219.833,305.5 214.5,305.5C 214.5,286.167 214.5,266.833 214.5,247.5 Z"/></g>
<g><path style="opacity:0.9" fill="#221f1f" d="M 442.5,247.5 C 445.5,247.5 448.5,247.5 451.5,247.5C 451.5,266.833 451.5,286.167 451.5,305.5C 448.5,305.5 445.5,305.5 442.5,305.5C 442.5,286.167 442.5,266.833 442.5,247.5 Z"/></g>
<g><path style="opacity:0.89" fill="#221f1f" d="M 527.5,326.5 C 525.833,326.5 524.167,326.5 522.5,326.5C 521.513,324.527 520.513,322.527 519.5,320.5C 522.491,319.004 525.491,317.504 528.5,316C 529.863,314.055 530.697,311.888 531,309.5C 531.5,288.836 531.667,268.169 531.5,247.5C 534.5,247.5 537.5,247.5 540.5,247.5C 540.667,269.169 540.5,290.836 540,312.5C 539.647,315.539 538.48,318.205 536.5,320.5C 533.607,322.772 530.607,324.772 527.5,326.5 Z"/></g>
</svg>
